<?xml version="1.0" encoding="UTF-8"?>
<svg width="474px" height="455px" viewBox="0 0 474 455" version="1.1" xmlns="http://www.w3.org/2000/svg" xmlns:xlink="http://www.w3.org/1999/xlink">
    <!-- Generator: Sketch 64 (93537) - https://sketch.com -->
    <title>direct</title>
    <desc>Created with Sketch.</desc>
    <g id="Page-1" stroke="none" stroke-width="1" fill="none" fill-rule="evenodd">
        <g id="Artboard" transform="translate(-11.000000, -21.000000)" fill="#64BC5F" fill-rule="nonzero">
            <g id="direct" transform="translate(11.000000, 21.000000)">
                <path d="M453.936748,0.746565766 L10.5261063,139.828149 C-1.99642178,143.756121 -3.80733378,160.106465 7.58946646,166.467175 L175.158553,260.00006 C180.445078,262.951084 187.052279,262.595163 191.960376,259.09558 L239.065111,225.516098 L204.083452,270.732725 C200.438693,275.445007 200.06791,281.788288 203.141204,286.861995 L300.579737,447.714377 C307.213696,458.66353 324.242958,456.905941 328.332083,444.895447 L473.221288,19.2581202 C477.107821,7.82920757 465.784604,-2.97225691 453.936748,0.746565766 Z M309.860781,404.640613 L234.641517,280.467344 L325.342884,163.229029 C329.862041,157.385688 329.239928,149.246292 323.878864,144.100117 C318.518756,138.953941 310.037572,138.355847 303.951187,142.694779 L181.817357,229.761463 L52.4599476,157.55631 L434.79364,37.6320763 L309.860781,404.640613 Z M160.536513,321.652342 L59.0126777,419.105861 C53.0419241,424.83637 43.3604732,424.838205 37.3897196,419.105861 C31.4180103,413.374434 31.4180103,404.081047 37.3897196,398.34962 L138.913555,300.896101 C144.88622,295.165592 154.567671,295.163757 160.536513,300.896101 C166.508223,306.627528 166.508223,315.920915 160.536513,321.652342 L160.536513,321.652342 Z M26.4153062,325.339976 C20.4435969,319.607632 20.4435969,310.315162 26.4153062,304.583735 L66.4751642,266.128687 C72.4459178,260.396343 82.1273687,260.396343 88.0981223,266.128687 C94.0698316,271.861031 94.0698316,281.153501 88.0981223,286.884928 L48.0382644,325.339976 C42.0684664,331.070485 32.3860598,331.071403 26.4153062,325.339976 Z M196.755709,370.430013 C202.727418,376.16144 202.727418,385.454827 196.755709,391.186254 L156.694895,429.640385 C153.709519,432.507015 149.796228,433.939872 145.883894,433.939872 C132.38376,433.939872 125.413421,418.155515 135.072893,408.884144 L175.133706,370.430013 C181.103504,364.697669 190.784955,364.697669 196.755709,370.430013 L196.755709,370.430013 Z" id="Shape"></path>
            </g>
        </g>
    </g>
</svg>